<?xml version="1.0" encoding="UTF-8" standalone="no"?>
<svg
   width="24"
   height="24"
   viewBox="0 0 24 24"
   version="1.1"
   id="svg892"
   sodipodi:docname="github.svg"
   inkscape:version="1.1 (c68e22c387, 2021-05-23)"
   xmlns:inkscape="http://www.inkscape.org/namespaces/inkscape"
   xmlns:sodipodi="http://sodipodi.sourceforge.net/DTD/sodipodi-0.dtd"
   xmlns="http://www.w3.org/2000/svg"
   xmlns:svg="http://www.w3.org/2000/svg">
  <defs
     id="defs896" />
  <sodipodi:namedview
     id="namedview894"
     pagecolor="#ffffff"
     bordercolor="#666666"
     borderopacity="1.0"
     inkscape:pageshadow="2"
     inkscape:pageopacity="0.0"
     inkscape:pagecheckerboard="0"
     showgrid="false"
     inkscape:zoom="14.625"
     inkscape:cx="12"
     inkscape:cy="12.034188"
     inkscape:window-width="958"
     inkscape:window-height="1008"
     inkscape:window-x="953"
     inkscape:window-y="0"
     inkscape:window-maximized="0"
     inkscape:current-layer="svg892" />
  <path
     d="m -20.068376,-10.940171 c -6.626,0 -12,5.373 -12,12 0,5.302 3.438,9.8 8.207,11.387 0.599,0.111 0.793,-0.261 0.793,-0.577 V 9.6358294 c -3.338,0.7259996 -4.033,-1.416 -4.033,-1.416 -0.546,-1.387 -1.333,-1.756 -1.333,-1.756 -1.089,-0.7450004 0.083,-0.7290004 0.083,-0.7290004 1.205,0.084 1.839,1.2370004 1.839,1.2370004 1.07,1.834 2.807,1.304 3.492,0.997 0.107,-0.775 0.418,-1.305 0.762,-1.6040004 -2.665,-0.305 -5.467,-1.334 -5.467,-5.93099996 0,-1.311 0.469,-2.38100004 1.236,-3.22099994 -0.124,-0.303 -0.535,-1.524 0.117,-3.1760001 0,0 1.008,-0.322 3.301,1.23 0.957,-0.266 1.983,-0.399 3.003,-0.404 1.02,0.005 2.047,0.138 3.006,0.404 2.291,-1.552 3.297,-1.23 3.297,-1.23 0.653,1.6530001 0.242,2.8740001 0.118,3.1760001 0.77,0.8399999 1.235,1.91099994 1.235,3.22099994 0,4.60899996 -2.807,5.62399996 -5.479,5.92099996 0.43,0.3720004 0.823,1.1020004 0.823,2.2220004 v 3.2929996 c 0,0.319 0.192,0.694 0.801,0.576 4.765,-1.589 8.1989999,-6.086 8.1989999,-11.386 0,-6.627 -5.3729999,-12 -11.9999999,-12 z"
     id="path890" />
  <rect
     style="fill:#4376b9;stroke:#000000;stroke-width:0;stroke-miterlimit:4;stroke-dasharray:none;stroke-opacity:0"
     id="rect1195"
     width="27.1453"
     height="26.940172"
     x="-1.4358982"
     y="-1.5042734" />
  <path
     d="m 11.965812,2.6548579 c -4.8892705,0 -8.8547007,4.0546474 -8.8547007,9.0556051 0,4.001068 2.5368718,7.395411 6.0558775,8.593015 0.4419971,0.08376 0.5851481,-0.196959 0.5851481,-0.435424 V 18.182202 C 7.2890543,18.730067 6.7762195,17.113641 6.7762195,17.113641 6.3733306,16.066964 5.7926098,15.788504 5.7926098,15.788504 c -0.8035641,-0.562202 0.061245,-0.550128 0.061245,-0.550128 0.8891595,0.06339 1.3569829,0.933482 1.3569829,0.933482 0.7895441,1.383998 2.0712621,0.984043 2.5767179,0.75237 0.078955,-0.584841 0.3084394,-0.984797 0.5622734,-1.210433 -1.9664813,-0.230163 -4.0340539,-1.006681 -4.0340539,-4.475732 0,-0.989325 0.3460712,-1.7967835 0.9120342,-2.4306759 -0.091499,-0.228654 -0.3947721,-1.1500618 0.086333,-2.3967168 0,0 0.7437949,-0.2429921 2.4357806,0.9281995 0.7061628,-0.2007326 1.4632388,-0.3010989 2.2158888,-0.304872 0.75265,0.00377 1.510464,0.1041394 2.218102,0.304872 1.69051,-1.1711916 2.432829,-0.9281995 2.432829,-0.9281995 0.481844,1.2474096 0.17857,2.1688174 0.08707,2.3967168 0.568176,0.6338924 0.911296,1.4421049 0.911296,2.4306759 0,3.478107 -2.071262,4.24406 -4.042909,4.468186 0.317294,0.280724 0.607285,0.831606 0.607285,1.676796 v 2.485009 c 0,0.240728 0.141675,0.523716 0.591051,0.434669 3.516054,-1.199113 6.049975,-4.592701 6.049975,-8.59226 0,-5.0009577 -3.964693,-9.0556051 -8.854701,-9.0556051 z"
     id="path890-9"
     style="stroke-width:0.746216;fill:#ffffff" />
</svg>
