<?xml version="1.0" encoding="UTF-8" standalone="no"?>
<svg
   width="24"
   height="24"
   viewBox="0 0 24 24"
   version="1.1"
   id="svg1471"
   sodipodi:docname="linkedin.svg"
   inkscape:version="1.1 (c68e22c387, 2021-05-23)"
   xmlns:inkscape="http://www.inkscape.org/namespaces/inkscape"
   xmlns:sodipodi="http://sodipodi.sourceforge.net/DTD/sodipodi-0.dtd"
   xmlns="http://www.w3.org/2000/svg"
   xmlns:svg="http://www.w3.org/2000/svg">
  <defs
     id="defs1475" />
  <sodipodi:namedview
     id="namedview1473"
     pagecolor="#ffffff"
     bordercolor="#666666"
     borderopacity="1.0"
     inkscape:pageshadow="2"
     inkscape:pageopacity="0.0"
     inkscape:pagecheckerboard="0"
     showgrid="false"
     inkscape:zoom="12.256518"
     inkscape:cx="5.2625062"
     inkscape:cy="26.965245"
     inkscape:window-width="1920"
     inkscape:window-height="1017"
     inkscape:window-x="-8"
     inkscape:window-y="-8"
     inkscape:window-maximized="1"
     inkscape:current-layer="svg1471" />
  <rect
     style="fill:#4376b9;fill-opacity:1;stroke:#000000;stroke-width:0;stroke-opacity:0"
     id="rect2355"
     width="26.92445"
     height="4.8137655"
     x="-0.65271395"
     y="19.173471" />
  <rect
     style="fill:#4376b9;fill-opacity:1;stroke:#000000;stroke-width:0;stroke-opacity:0"
     id="rect2357"
     width="28.474646"
     height="4.976944"
     x="-1.3054279"
     y="-2.2029095" />
  <rect
     style="fill:#4376b9;fill-opacity:1;stroke:#000000;stroke-width:0;stroke-opacity:0"
     id="rect2359"
     width="7.0193839"
     height="24.20141"
     x="-3.0188019"
     y="-0.16317849" />
  <rect
     style="fill:#4376b9;fill-opacity:1;stroke:#000000;stroke-width:0;stroke-opacity:0"
     id="rect2361"
     width="11.912029"
     height="28.311468"
     x="21.294792"
     y="-1.3870171" />
  <rect
     style="fill:#ffffff;fill-opacity:1;stroke:#000000;stroke-width:0;stroke-opacity:0"
     id="rect2482"
     width="18.112812"
     height="16.970562"
     x="2.7740343"
     y="2.692445" />
  <path
     style="fill:#4376b9;fill-opacity:1;stroke:#000000;stroke-width:0;stroke-opacity:0"
     d="M 4.000582,-0.16317849 C 2.1630538,0.25107451 0.56984818,1.6300045 0.01168708,3.4445085 c -0.3276534,0.878069 -0.091212,1.849969 -0.1672945,2.769649 0.018055,4.3058365 -0.09476,8.6139325 0.028124,12.9183615 0.019017,2.259691 1.89637992,4.275587 4.07946222,4.674649 4.1306489,0.136225 8.2663912,0.0343 12.3990082,0.05558 1.2043,-0.02621 2.424054,0.04263 3.619086,-0.0407 1.742645,-0.480939 3.232443,-1.821547 3.760698,-3.567822 0.301569,-0.800947 0.07835,-1.694294 0.15085,-2.535327 -0.01687,-4.40955 0.09033,-8.8211365 -0.02517,-13.2294405 -0.0056,-1.643462 -1.064078,-3.167772 -2.453137,-3.98255299 -0.743445,-0.459563 -1.599833,-0.703351 -2.47584,-0.648006 -4.975125,-0.05062 -9.9521053,-0.02114 -14.9268912,-0.02208 z M 6.3711317,3.1190345 c 1.140567,-0.04606 1.970246,1.223103 1.590194,2.267129 -0.255572,0.643666 -0.912773,1.21834 -1.639245,1.089527 -1.15075,0.09841 -1.9763016,-1.275288 -1.509271,-2.278148 0.25082,-0.627152 0.868382,-1.09545 1.558322,-1.078508 z m -0.01498,4.786516 c 0.455432,0.05514 1.131044,-0.109904 1.450121,0.08159 0,3.6048015 0,7.2096015 0,10.8144015 -0.966747,0 -1.933495,0 -2.900242,0 0,-3.631997 0,-7.263993 0,-10.8959905 0.483373,0 0.966747,0 1.450121,-10e-7 z m 5.0177393,0 c 0.437847,0.05912 1.109365,-0.115422 1.409326,0.08159 0.02539,0.503587 -0.05098,1.030762 0.03872,1.51944 0.363208,-0.07398 0.559372,-0.565385 0.895889,-0.767288 1.504146,-1.202934 3.977674,-1.130557 5.206413,0.44141 1.004191,1.1363345 0.828826,2.7613905 0.869056,4.1779405 0.0096,1.814279 0.004,3.628601 0.0066,5.442899 -0.966747,0 -1.933495,0 -2.900243,0 -0.02762,-2.151802 0.06347,-4.310831 -0.08509,-6.45814 -0.261618,-1.000397 -1.322432,-1.839336 -2.374852,-1.506373 -1.057147,0.304898 -1.720938,1.43977 -1.611069,2.514447 -0.03568,1.816427 -0.03602,3.633372 -0.05498,5.450066 -0.936364,0 -1.872729,0 -2.8090919,0 0,-3.631997 0,-7.263993 0,-10.8959895 0.4697759,0 0.9395509,0 1.4093269,0 z"
     id="path1762-1" />
</svg>
