<?xml version="1.0" encoding="UTF-8" standalone="no"?>
<!-- Generator: Adobe Illustrator 21.1.0, SVG Export Plug-In . SVG Version: 6.00 Build 0)  -->

<svg
   version="1.1"
   id="Layer_1"
   x="0px"
   y="0px"
   viewBox="0 0 100.354 100.352"
   style="enable-background:new 0 0 100.354 100.352;"
   xml:space="preserve"
   sodipodi:docname="mail.svg"
   inkscape:version="1.1 (c68e22c387, 2021-05-23)"
   xmlns:inkscape="http://www.inkscape.org/namespaces/inkscape"
   xmlns:sodipodi="http://sodipodi.sourceforge.net/DTD/sodipodi-0.dtd"
   xmlns="http://www.w3.org/2000/svg"
   xmlns:svg="http://www.w3.org/2000/svg"><defs
   id="defs7" /><sodipodi:namedview
   id="namedview5"
   pagecolor="#ffffff"
   bordercolor="#666666"
   borderopacity="1.0"
   inkscape:pageshadow="2"
   inkscape:pageopacity="0.0"
   inkscape:pagecheckerboard="0"
   showgrid="false"
   inkscape:zoom="2.0727041"
   inkscape:cx="49.452307"
   inkscape:cy="123.02769"
   inkscape:window-width="958"
   inkscape:window-height="1008"
   inkscape:window-x="946"
   inkscape:window-y="0"
   inkscape:window-maximized="0"
   inkscape:current-layer="Layer_1" />

<rect
   style="fill:#4376b9;fill-opacity:1;stroke:#000000;stroke-width:0;stroke-opacity:0"
   id="rect1365"
   width="102.28185"
   height="101.79939"
   x="0.4824613"
   y="0.48246178" /><path
   d="m 88.388144,72.087476 c 0.03911,-0.11758 0.06574,-0.241646 0.06574,-0.372198 v -43.0801 c 0,-0.131363 -0.02662,-0.256241 -0.06657,-0.374631 -0.0058,-0.01622 -0.0091,-0.03243 -0.01581,-0.04866 -0.05325,-0.138661 -0.131472,-0.263539 -0.229659,-0.373008 -0.0067,-0.0073 -0.0075,-0.01622 -0.01415,-0.02352 -0.0042,-0.0042 -0.0091,-0.0057 -0.01332,-0.0097 -0.104846,-0.108659 -0.228828,-0.196236 -0.367789,-0.261917 -0.01082,-0.0049 -0.01914,-0.01135 -0.02996,-0.01622 -0.131472,-0.05759 -0.274593,-0.09001 -0.425203,-0.09974 -0.01498,-8.1e-4 -0.02912,-0.0041 -0.0441,-0.0041 -0.01415,-8.11e-4 -0.02662,-0.0042 -0.04077,-0.0042 H 17.971706 c -0.01415,0 -0.02745,0.0033 -0.0416,0.0042 -0.01332,8.1e-4 -0.02663,0.0033 -0.03994,0.0041 -0.152274,0.0097 -0.297891,0.04297 -0.431027,0.101362 -0.0083,0.0033 -0.01498,0.0089 -0.0233,0.01216 -0.141457,0.06569 -0.267103,0.15488 -0.37278,0.265161 -0.0041,0.0041 -0.0091,0.0049 -0.01332,0.0089 -0.0067,0.0065 -0.0075,0.01541 -0.01415,0.02271 -0.09819,0.109469 -0.177237,0.235159 -0.230491,0.37382 -0.0067,0.01622 -0.01,0.03243 -0.01581,0.04947 -0.03994,0.11839 -0.06657,0.243268 -0.06657,0.374631 v 43.08091 c 0,0.132986 0.02745,0.259486 0.06823,0.379496 0.0058,0.01622 0.0091,0.03164 0.01498,0.04784 0.05409,0.139473 0.133968,0.265161 0.232988,0.374631 0.0058,0.0065 0.0075,0.01459 0.01332,0.02108 0.005,0.0057 0.01165,0.0089 0.01747,0.01459 0.04077,0.04136 0.08571,0.07785 0.132304,0.113524 0.0208,0.01541 0.03911,0.03406 0.06074,0.04866 0.05492,0.03731 0.113998,0.06731 0.174741,0.09487 0.01498,0.0065 0.0283,0.01702 0.04327,0.02271 0.15061,0.06244 0.316198,0.09812 0.490107,0.09812 h 69.234023 c 0.173909,0 0.339496,-0.03486 0.490106,-0.09812 0.0233,-0.0097 0.04493,-0.02433 0.0674,-0.03568 0.05159,-0.02513 0.10318,-0.05108 0.15061,-0.08271 0.02496,-0.01702 0.04743,-0.03892 0.07156,-0.05758 0.04243,-0.03325 0.08405,-0.06648 0.120655,-0.104604 0.0067,-0.0065 0.01415,-0.01135 0.0208,-0.01784 0.0067,-0.0073 0.0083,-0.01703 0.01498,-0.02433 0.09735,-0.108659 0.175573,-0.233535 0.228827,-0.371386 0.0083,-0.01784 0.01248,-0.03486 0.01831,-0.05271 z M 19.219856,31.393823 40.227877,50.093732 19.219856,68.942849 Z m 43.057831,17.783606 c -0.08654,0.05514 -0.178069,0.10136 -0.250462,0.179206 -0.02746,0.02919 -0.03661,0.06731 -0.06074,0.09812 l -9.377767,8.34729 -31.400114,-27.950533 h 62.800229 z m -20.19922,2.563219 9.668166,8.605966 c 0.238812,0.212453 0.540032,0.31868 0.842085,0.31868 0.302052,0 0.603273,-0.106227 0.841253,-0.31868 l 9.548344,-8.498928 21.004693,18.652069 H 21.170297 Z M 64.829737,50.19996 85.95758,31.393823 V 68.96231 Z"
   id="path2"
   style="fill:#ffffff;stroke-width:0.821425" /></svg>
